<?xml version="1.0" encoding="utf-8"?>
<svg xmlns="http://www.w3.org/2000/svg" xmlns:xlink="http://www.w3.org/1999/xlink">
<style>:root>svg{display:none}:root>svg:target{display:block}</style>

<svg fill="none" id="logo-img" xmlns="http://www.w3.org/2000/svg">
<g clip-path="url(#a)">
<path d="M6.07 20.72v-2.26a143.265 143.265 0 0 1 20.17-1.33c0 .6 0 1.21-.06 1.82a25.518 25.518 0 0 1 6-1.82A16.67 16.67 0 0 0 .19 20.39l5.88.33ZM27.24 24.23c-1.16 1.28-1.39 1.2-1.39 3.45v9.18A16.64 16.64 0 0 0 33.32 23a17.302 17.302 0 0 0-.32-3.1 33.109 33.109 0 0 0-5.76 4.33ZM6.36 25.72s-3.79-1.44-5.19-1.83A8.541 8.541 0 0 0 0 23.61a16.65 16.65 0 0 0 8.68 14L6.36 25.72Z" fill="#FDC305"/>
<path d="M26.29 17.12A89.799 89.799 0 0 0 24.89.65S24.75-.64 24 .41a14.22 14.22 0 0 0-1.2 3.94 70.34 70.34 0 0 0-12.77.34C9.24 2 7.85.75 7.18 1c-.67.25-.72 3.31-.72 3.31l-.33 14.1a143.211 143.211 0 0 1 20.16-1.29Z" fill="#F06351"/>
<path d="M12.41 14c0-.09 1 .68 1.41.92.41.24.61.42.61.59 0 .17-.27.34-.63.34s-.91-.12-1-.27h1.23A8.34 8.34 0 0 1 12.41 14ZM19.89 14.11l-1.09 1.33c0 .06-.17.35.18.3a7.351 7.351 0 0 0 1.22-.29c.11 0 .07-.19-.11-.17-.18.02-.69.05-1 .11l.84-1.26s.07-.13-.04-.02ZM16.75 20.2a2.3 2.3 0 0 0 1.09-1c.28-.65 0-.91-.44-1a2.43 2.43 0 0 0-1.74.34c-.39.36-.34.72-.05 1a5.34 5.34 0 0 0 1.14.66Z" fill="#000"/>
<path d="M16.35 21.45a1.92 1.92 0 0 1-.46.6 1.73 1.73 0 0 1-1 .38 2.15 2.15 0 0 1-1.47-.43 2.3 2.3 0 0 1-.53-.44c-.1-.11-.223-.2-.36-.26 0 0 .75 4.1 2.57 4.75 1.82.65 2.14-.75 2.2-1.13a5.61 5.61 0 0 0-.82-3.23c-.02-.31-.03-.11-.13-.24Z" fill="#F06351"/>
<path d="M14.71 22.59a3.44 3.44 0 0 1-2.361-1.466.14.14 0 0 1 .031-.154.14.14 0 0 1 .2 0 3.26 3.26 0 0 0 2.11 1.3 2.09 2.09 0 0 0 1.63-1l.14-.19.1.21s.37.76 1 .8c.63.04 1.05-.41 1.61-1.28a.14.14 0 0 1 .2 0 .15.15 0 0 1 .05.2c-.64 1-1.27 1.44-1.88 1.4a1.549 1.549 0 0 1-1.12-.76 2.26 2.26 0 0 1-1.71.94Z" fill="#000"/>
<path d="M26.24 18.92a58.634 58.634 0 0 0-5.07 5.19A31.633 31.633 0 0 1 15.88 29c-.22-.53-1.62-1.51-1.62-1.51s-3.13-2.14-5.18-3.82a34.139 34.139 0 0 1-3.13-3l-2-.11a22.57 22.57 0 0 0 12 8.8c.86-.14 3.27-1.86 5.07-3.26a58.13 58.13 0 0 0 5.94-5.89 6.15 6.15 0 0 0 1.14-2c-1.1.39-1.86.71-1.86.71Z" fill="#F06351"/>
</g><defs><clipPath id="a"><path fill="#fff" d="M0 0h33.32v37.61H0z"/></clipPath></defs></svg>

<svg fill="none" id="logo-middle" xmlns="http://www.w3.org/2000/svg">
<g clip-path="url(#a)">
<path d="M51.582 20.854a22.231 22.231 0 0 0-6.936-9.09 21.96 21.96 0 0 0-10.503-4.396A21.887 21.887 0 0 0 22.865 8.83a22.083 22.083 0 0 0-9.058 6.934 22.354 22.354 0 0 0-4.43 10.564 22.432 22.432 0 0 0 1.373 11.386 22.238 22.238 0 0 0 6.813 9.184 21.965 21.965 0 0 0 10.442 4.54c-.5-1.815-1.008-3.822-1.456-5.951a27.756 27.756 0 0 0 4.1 2.215s.104 1.877.241 3.971c1.54.027 3.08-.11 4.592-.408a1.874 1.874 0 0 1 0-.66c.25-1.625.939-4.553 1.077-6.439a13.212 13.212 0 0 0 2.498-3.224l-.052.383c-.474 3.701-1.464 7.655-2.067 8.75a4.845 4.845 0 0 1-.715.999 22.006 22.006 0 0 0 8.563-4.141 22.237 22.237 0 0 0 6.047-7.386 22.45 22.45 0 0 0 .749-18.694Zm-1.266 3.293c-.38.374-1.163.626-1.293-.504-.129-1.13-.163-1.92-.163-1.92s-1.663-2.98-2.283-3.015c-.62-.035-5.022 3.015-6.185 4.344-1.008 1.121-1.206 1.043-1.206 3.015 0 1.486.19 7.1.086 11.392l-7.02 1.886a54.724 54.724 0 0 1-6.72 1.494l-.861-5.066h-.12L22.335 24.33s-3.282-1.252-4.488-1.59a3.213 3.213 0 0 0-3.445.547c-.472.417-.85.931-1.107 1.509a4.437 4.437 0 0 0-.384 1.836c.182.404.321.826.414 1.26.043.417-1.034.374-1.723.374-.69 0-.793-1.251-.25-2.72.424-1.129.948-2.217 1.568-3.25a10.312 10.312 0 0 1 1.783-2.51s.12-.296 1.077-.21c.956.088 6.271.374 6.271.374l.043-1.972a121.95 121.95 0 0 1 17.436-1.165v1.59a19.265 19.265 0 0 1 7.011-1.737.778.778 0 0 1 .664.339c.293.373 2.076 2.607 2.283 2.928.579.835 1.105 1.705 1.576 2.607a5.44 5.44 0 0 1-.75 1.599v.008Z" fill="#FDC305"/><path d="M48.636 18.83c.405.52.758.981.862 1.12.579.835 1.105 1.706 1.576 2.607a5.444 5.444 0 0 1-.74 1.547c-.38.373-1.164.625-1.293-.504-.13-1.13-.18-1.877-.18-1.877s-1.663-2.98-2.283-3.015c-.62-.035-5.023 3.015-6.186 4.344-1.008 1.121-1.206 1.043-1.206 3.015 0 1.304.147 5.779.112 9.758 1.56.174 3.851.609 4.54 1.634 0 0-.25-6.239 6.728-2.972 0 0 .241-8.506 9.872-6.325a37.712 37.712 0 0 0-11.802-9.333ZM39.565 16.814A79.248 79.248 0 0 0 38.36 2.45s-.129-1.13-.749-.208a12.47 12.47 0 0 0-1.034 3.475 60.535 60.535 0 0 0-11.043.296c-.707-2.39-1.913-3.476-2.49-3.189-.577.287-.646 2.85-.646 2.85l-.284 12.304a121.956 121.956 0 0 1 17.452-1.165Z" fill="#F06351"/><path d="M39.065 40.943c.112-.93.172-2.163.207-3.527l-7.02 1.885a54.73 54.73 0 0 1-6.72 1.538l.957 4.345c0 .095 0 .19.06.286a27.764 27.764 0 0 0 4.1 2.216 36.485 36.485 0 0 0 5.927-3.589v.053a13.208 13.208 0 0 0 2.49-3.207Z" fill="#E55645"/><path d="M27.566 14.094c-.043-.087.861.59 1.214.8.353.208.526.364.526.512 0 .148-.224.295-.534.295-.31 0-.793-.104-.862-.226-.069-.121.517 0 .81 0h.25a6.99 6.99 0 0 1-1.404-1.381ZM34.026 14.19s-.861 1.112-.939 1.164c-.077.052-.146.295.164.252a6.911 6.911 0 0 0 1.051-.244c.095-.052.06-.173-.103-.156-.164.017-.586.043-.862.096l.732-1.104s.026-.104-.043-.009ZM31.322 19.498c.399-.177.729-.482.938-.868.242-.574 0-.791-.379-.87a2.095 2.095 0 0 0-1.507.296c-.336.322-.293.634 0 .869.29.23.61.423.948.573Z" fill="#000"/><path d="M31.011 20.593a1.78 1.78 0 0 1-.396.522c-.245.199-.547.314-.861.33a1.866 1.866 0 0 1-1.327-.383 1.725 1.725 0 0 1-.456-.39.862.862 0 0 0-.31-.218s.645 3.572 2.213 4.145c1.568.573 1.86-.66 1.904-.99a4.925 4.925 0 0 0-.706-2.816c0-.26-.018-.087-.06-.2Z" fill="#F06351"/>
<path d="M29.547 21.584a2.998 2.998 0 0 1-2.024-1.243.131.131 0 0 1 0-.173.122.122 0 0 1 .086-.037.121.121 0 0 1 .086.037 2.785 2.785 0 0 0 1.817 1.138 1.806 1.806 0 0 0 1.413-.87l.12-.164.087.191s.327.66.861.695c.534.035.913-.365 1.404-1.12a.123.123 0 0 1 .172-.035.125.125 0 0 1 .035.173c-.574.852-1.117 1.26-1.628 1.225a1.328 1.328 0 0 1-.965-.634 1.954 1.954 0 0 1-1.464.817Z" fill="#000"/>
<path d="M31.235 33.28c1.784 0 3.23-1.46 3.23-3.259 0-1.8-1.446-3.258-3.23-3.258s-3.23 1.458-3.23 3.258 1.446 3.258 3.23 3.258Z" fill="#FDC305"/>
<path d="m35.516 27.37-2.696 1.14.99-4.893-6.46 8.48 2.697-1.138-.991 4.901 6.46-8.49ZM29.151 30.7l3.583-4.701-.698 3.476 1.723-.713-3.61 4.71.699-3.476-1.697.704ZM27.945 29.422a.969.969 0 0 0 .965-.974.97.97 0 0 0-.965-.973.97.97 0 0 0-.965.973c0 .538.432.974.965.974ZM33.561 32.95c.376 0 .68-.308.68-.687a.684.684 0 0 0-.68-.687.684.684 0 0 0-.68.687c0 .379.304.686.68.686ZM34.388 31.064a.303.303 0 0 0 .302-.304.303.303 0 0 0-.302-.305.303.303 0 0 0-.301.305c0 .168.135.304.301.304Z" fill="#111"/>
<path d="M39.522 18.386a49.73 49.73 0 0 0-4.384 4.527 27.555 27.555 0 0 1-4.574 4.258c-.19-.46-1.405-1.32-1.405-1.32s-2.704-1.869-4.48-3.337a27.578 27.578 0 0 1-2.704-2.607l-1.723-.096a19.507 19.507 0 0 0 10.337 7.681c.741-.121 2.826-1.624 4.385-2.85a49.885 49.885 0 0 0 5.169-5.135c.429-.514.761-1.103.982-1.738-.982.33-1.603.617-1.603.617ZM22.337 24.33s-3.282-1.252-4.488-1.59a3.214 3.214 0 0 0-3.446.547c-.472.417-.85.931-1.107 1.509a4.439 4.439 0 0 0-.383 1.836c.182.404.32.826.413 1.26.043.417-1.033.374-1.723.374-.689 0-.792-1.251-.25-2.72.424-1.129.949-2.217 1.568-3.25C8.227 24.764 0 30.464 0 30.464a39.136 39.136 0 0 1 7.055.209c4.523.46 4.307 4.058 4.307 4.058a33.033 33.033 0 0 1 4.85-.965c1.826-.121 1.956 1.842 1.956 1.842l.456 3.354a15.804 15.804 0 0 1 2.283-2.05 5.189 5.189 0 0 1 3.773-1.13L22.337 24.33Z" fill="#F06351"/>
<path d="M73.79 36.495a7.25 7.25 0 0 1-1.206-4.51v-6.517a7.364 7.364 0 0 1 1.189-4.553c.798-1.037 2.162-1.553 4.091-1.547 1.93.006 3.236.46 3.92 1.364a5.875 5.875 0 0 1 1.145 3.902v1.53h-3.566v-1.66a8.768 8.768 0 0 0-.112-1.304 1.464 1.464 0 0 0-.405-.825 1.341 1.341 0 0 0-.99-.322 1.248 1.248 0 0 0-1.292.652 4.79 4.79 0 0 0-.293 1.911v8.273c-.04.654.076 1.31.336 1.911a1.265 1.265 0 0 0 1.25.634c.241.035.488-.008.705-.124.216-.115.391-.297.5-.519a5.114 5.114 0 0 0 .267-1.902V31.15h3.566v1.503a6.342 6.342 0 0 1-1.06 4.006c-.758.955-2.067 1.425-3.928 1.425-1.86 0-3.316-.522-4.117-1.59ZM87.788 19.62h4.083l3.446 18.247h-3.394l-.612-4.031h-2.86l-.689 4.005h-3.445l3.471-18.22Zm3.144 11.922-1.085-7.334-1.077 7.334h2.162ZM97.962 22.366H95.17V19.62h9.234v2.746h-2.757V37.84h-3.695l.008-15.475Z" fill="#111"/>
<path d="M111.65 19.62h7.003v1.894h-4.479v6.022h3.635v1.799h-3.635v6.682h4.522v1.824h-7.046v-18.22ZM120.729 19.62h1.723l5.168 12.104V19.62h2.102v18.247h-1.611l-5.168-12.442V37.84h-2.136l-.078-18.22ZM132.505 19.62h6.994v1.894h-4.479v6.022h3.67v1.799h-3.635v6.682h4.496v1.824h-7.046v-18.22ZM141.576 19.62h3.635a5.994 5.994 0 0 1 4.023 1.138c.861.756 1.283 1.99 1.283 3.702 0 2.317-.744 3.733-2.231 4.249l2.584 9.132h-2.446l-2.369-8.55H144.1v8.55h-2.524v-18.22Zm3.445 7.82c.83.081 1.66-.154 2.326-.66a3.115 3.115 0 0 0 .706-2.355 5.12 5.12 0 0 0-.249-1.738 1.645 1.645 0 0 0-.862-.938 4.068 4.068 0 0 0-1.766-.304h-1.111v6.03l.956-.035ZM153.911 36.495a8.104 8.104 0 0 1-1.094-4.65v-6.082a11.857 11.857 0 0 1 .431-3.475 3.894 3.894 0 0 1 1.499-2.094 5.056 5.056 0 0 1 2.894-.73c.657-.063 1.32.02 1.941.241a4.526 4.526 0 0 1 1.66 1.045 6.12 6.12 0 0 1 1.102 4.023v.678h-2.368v-.565a10.088 10.088 0 0 0-.155-2.016 1.742 1.742 0 0 0-.655-1.069 2.567 2.567 0 0 0-1.482-.356 2.158 2.158 0 0 0-1.559.486 2.229 2.229 0 0 0-.663 1.287c-.109.715-.158 1.439-.147 2.163v6.769a6.575 6.575 0 0 0 .509 3.006 2.434 2.434 0 0 0 1.944.912 2.426 2.426 0 0 0 1.906-.99 7.111 7.111 0 0 0 .526-3.171V30.62h-2.292v-1.799h4.566v9.02h-1.56l-.249-2.095a3.211 3.211 0 0 1-1.206 1.725 3.158 3.158 0 0 1-2.007.595 3.985 3.985 0 0 1-1.971-.328 4.02 4.02 0 0 1-1.57-1.244ZM167.711 31.411l-3.902-11.79h2.343l2.765 8.793 2.722-8.794h2.369l-3.876 11.791v6.43h-2.412l-.009-6.43Z" fill="#444"/>
</g><defs><clipPath id="a"><path fill="#fff" d="M0 0h174v51.683H0z"/></clipPath></defs></svg>

<svg fill="none" id="logo-big" xmlns="http://www.w3.org/2000/svg">
<g clip-path="url(#a)"><path d="M59.883 24.21a25.808 25.808 0 0 0-8.053-10.552 25.493 25.493 0 0 0-12.193-5.105 25.409 25.409 0 0 0-13.093 1.699 25.636 25.636 0 0 0-10.515 8.05 25.951 25.951 0 0 0-5.144 12.264 26.04 26.04 0 0 0 1.595 13.218 25.817 25.817 0 0 0 7.909 10.662 25.5 25.5 0 0 0 12.122 5.272c-.58-2.109-1.17-4.439-1.69-6.91 1.513.99 3.105 1.85 4.76 2.572 0 0 .12 2.179.28 4.61a25.269 25.269 0 0 0 5.33-.474 2.174 2.174 0 0 1 0-.767c.29-1.886 1.09-5.286 1.25-7.475a15.335 15.335 0 0 0 2.9-3.742l-.06.444c-.55 4.297-1.7 8.887-2.4 10.158-.226.42-.505.81-.83 1.16a25.549 25.549 0 0 0 9.941-4.808 25.817 25.817 0 0 0 7.021-8.573 26.065 26.065 0 0 0 .87-21.703Zm-1.47 3.823c-.44.434-1.35.726-1.5-.585-.15-1.311-.19-2.23-.19-2.23s-1.93-3.46-2.65-3.5c-.72-.04-5.831 3.5-7.181 5.044-1.17 1.301-1.4 1.21-1.4 3.5 0 1.725.22 8.242.1 13.225l-8.15 2.189a63.539 63.539 0 0 1-7.801 1.735l-1-5.881h-.14l-2.57-13.285s-3.81-1.453-5.21-1.846a3.73 3.73 0 0 0-4 .635 5.111 5.111 0 0 0-1.285 1.752 5.153 5.153 0 0 0-.446 2.132c.212.469.373.96.48 1.463.05.484-1.2.433-2 .433s-.92-1.452-.29-3.157c.492-1.31 1.1-2.574 1.82-3.773a11.971 11.971 0 0 1 2.07-2.915s.14-.343 1.25-.242c1.11.1 7.28.434 7.28.434l.05-2.29a141.559 141.559 0 0 1 20.242-1.352v1.846a22.362 22.362 0 0 1 8.14-2.017.904.904 0 0 1 .77.393c.34.434 2.41 3.026 2.65 3.4.673.969 1.284 1.98 1.83 3.026a6.32 6.32 0 0 1-.87 1.856v.01Z" fill="#FDC305"/>
<path d="M56.463 21.86c.47.605.88 1.14 1 1.3.672.97 1.283 1.98 1.83 3.027-.19.64-.48 1.247-.86 1.796-.44.433-1.35.726-1.5-.586-.15-1.31-.21-2.178-.21-2.178s-1.93-3.46-2.65-3.5c-.72-.041-5.83 3.5-7.18 5.043-1.17 1.301-1.4 1.21-1.4 3.5 0 1.513.17 6.708.13 11.328 1.81.202 4.47.707 5.27 1.897 0 0-.29-7.243 7.81-3.45 0 0 .28-9.876 11.46-7.344a43.781 43.781 0 0 0-13.7-10.834ZM45.932 19.52a92.02 92.02 0 0 0-1.4-16.675s-.15-1.312-.87-.242a14.475 14.475 0 0 0-1.2 4.035 70.276 70.276 0 0 0-12.82.343c-.82-2.775-2.22-4.035-2.89-3.703-.67.333-.75 3.31-.75 3.31l-.33 14.283a141.56 141.56 0 0 1 20.26-1.352Z" fill="#F06351"/>
<path d="M45.352 47.532c.13-1.08.2-2.512.24-4.096l-8.15 2.19a63.531 63.531 0 0 1-7.8 1.785l1.11 5.044c0 .11 0 .221.07.333 1.512.99 3.104 1.85 4.76 2.572a42.347 42.347 0 0 0 6.88-4.166v.06a15.333 15.333 0 0 0 2.89-3.722Z" fill="#E55645"/>
<path d="M32.002 16.362c-.05-.101 1 .686 1.41.928.41.242.61.424.61.595 0 .171-.26.343-.62.343s-.92-.121-1-.262c-.08-.142.6 0 .94 0h.29a8.112 8.112 0 0 1-1.63-1.604ZM39.502 16.473s-1 1.291-1.09 1.352c-.09.06-.17.343.19.292a8.025 8.025 0 0 0 1.22-.282c.11-.061.07-.202-.12-.182-.19.02-.68.05-1 .111l.85-1.281s.03-.121-.05-.01ZM36.362 22.636c.463-.206.846-.56 1.09-1.009.28-.665 0-.918-.44-1.008a2.432 2.432 0 0 0-1.75.343c-.39.373-.34.736 0 1.008.337.268.707.491 1.1.666Z" fill="#000"/>
<path d="M36.002 23.907c-.115.229-.271.434-.46.605a1.721 1.721 0 0 1-1 .384 2.167 2.167 0 0 1-1.54-.444 2.004 2.004 0 0 1-.53-.454 1 1 0 0 0-.36-.252s.75 4.146 2.57 4.812c1.82.665 2.16-.767 2.21-1.15a5.718 5.718 0 0 0-.82-3.269c0-.302-.02-.1-.07-.232Z" fill="#F06351"/>
<path d="M34.301 25.057a3.482 3.482 0 0 1-2.35-1.442.152.152 0 0 1 0-.202.14.14 0 0 1 .2 0 3.232 3.232 0 0 0 2.11 1.321 2.099 2.099 0 0 0 1.64-1.008l.14-.192.1.222s.38.767 1 .807c.62.04 1.06-.424 1.63-1.301a.144.144 0 0 1 .2-.04.145.145 0 0 1 .04.201c-.666.989-1.296 1.463-1.89 1.422a1.541 1.541 0 0 1-1.12-.736 2.266 2.266 0 0 1-1.7.948Z" fill="#000"/>
<path d="M36.262 38.635c2.07 0 3.75-1.694 3.75-3.783 0-2.09-1.68-3.783-3.75-3.783-2.072 0-3.75 1.694-3.75 3.783 0 2.09 1.678 3.783 3.75 3.783Z" fill="#FDC305"/>
<path d="m41.232 31.775-3.13 1.322 1.15-5.68-7.5 9.846 3.13-1.322-1.15 5.69 7.5-9.856Zm-7.39 3.864 4.16-5.457-.81 4.035 2-.828-4.19 5.468.81-4.035-1.97.817ZM32.441 34.156c.62 0 1.12-.506 1.12-1.13 0-.624-.5-1.13-1.12-1.13-.618 0-1.12.506-1.12 1.13 0 .624.502 1.13 1.12 1.13ZM38.962 38.252c.436 0 .79-.357.79-.797a.793.793 0 0 0-.79-.797.793.793 0 0 0-.79.797c0 .44.354.797.79.797ZM39.922 36.063c.193 0 .35-.159.35-.354a.352.352 0 0 0-.35-.353.352.352 0 0 0-.35.353c0 .195.157.353.35.353Z" fill="#111"/>
<path d="M45.882 21.345a57.737 57.737 0 0 0-5.09 5.256 31.988 31.988 0 0 1-5.31 4.942c-.22-.534-1.63-1.533-1.63-1.533s-3.14-2.169-5.2-3.873a32.023 32.023 0 0 1-3.14-3.027l-2-.11a22.646 22.646 0 0 0 12 8.917c.86-.142 3.28-1.887 5.09-3.31a57.904 57.904 0 0 0 6-5.96 6.45 6.45 0 0 0 1.14-2.018c-1.14.383-1.86.716-1.86.716Z" fill="#F06351"/>
<path d="m65.223 3.53-8.46 9.523-1.22-2.007L63.693 0l1.53 3.53ZM62.653 17.41l5.54-4.145-.78-3.773-5.4 4.852.64 3.067ZM59.923 49.802l6.13 3.207 3.01-2.36-6.69-2.774-2.45 1.927ZM1.95 6.022l3.07-3.39 9.29 9.08-1.22 2.3-11.14-7.99ZM7.38 16.422l-4.7-3.157-2.4 3.904 5.15 2.42 1.95-3.167ZM13.91 53.01l-4.55 3.379L12.16 60l4.02-4.055-2.27-2.936Z" fill="#FDC305"/>
<path d="M25.931 28.245s-3.81-1.453-5.21-1.846a3.73 3.73 0 0 0-4 .635 5.11 5.11 0 0 0-1.285 1.752 5.152 5.152 0 0 0-.445 2.132c.211.469.372.96.48 1.463.05.484-1.2.433-2 .433s-.92-1.452-.29-3.157A23.1 23.1 0 0 1 15 25.884C9.55 28.75 0 35.367 0 35.367a45.433 45.433 0 0 1 8.19.242c5.25.534 5 4.71 5 4.71a38.335 38.335 0 0 1 5.63-1.12c2.121-.14 2.271 2.14 2.271 2.14l.53 3.893a18.342 18.342 0 0 1 2.65-2.38 6.023 6.023 0 0 1 4.38-1.312l-2.72-13.295Z" fill="#F06351"/>
<path d="M85.664 42.367a8.417 8.417 0 0 1-1.4-5.235v-7.566a8.55 8.55 0 0 1 1.38-5.286c.927-1.203 2.51-1.802 4.75-1.795 2.24.007 3.757.535 4.55 1.584a6.82 6.82 0 0 1 1.33 4.529v1.775h-4.14v-1.927a10.173 10.173 0 0 0-.13-1.513 1.7 1.7 0 0 0-.47-.958 1.556 1.556 0 0 0-1.15-.373 1.45 1.45 0 0 0-.868.14c-.269.135-.49.35-.632.616a5.562 5.562 0 0 0-.34 2.22v9.603c-.045.76.088 1.52.39 2.22.145.251.359.455.616.586.258.13.548.183.834.15.282.04.569-.01.82-.145.252-.134.455-.345.58-.602a5.94 5.94 0 0 0 .31-2.21v-2.017h4.14v1.745a7.361 7.361 0 0 1-1.23 4.65c-.88 1.11-2.4 1.655-4.56 1.655-2.16 0-3.85-.605-4.78-1.846ZM101.915 22.777h4.74l4 21.184h-3.94l-.71-4.68h-3.32l-.8 4.65h-4l4.03-21.154Zm3.65 13.84-1.26-8.513-1.25 8.513h2.51ZM113.725 25.965h-3.24v-3.188h10.72v3.188h-3.2v17.966h-4.29l.01-17.966Z" fill="#111"/>
<path d="M129.616 22.777h8.13v2.2h-5.2v6.99h4.22v2.088h-4.22v7.757h5.25v2.119h-8.18V22.777ZM140.157 22.777h2l6 14.052V22.777h2.44v21.184h-1.87l-6-14.445V43.93h-2.48l-.09-21.154ZM153.828 22.777h8.12v2.2h-5.2v6.99h4.26v2.088h-4.22v7.757h5.22v2.119h-8.18V22.777ZM164.358 22.777h4.22a6.956 6.956 0 0 1 4.67 1.322c1 .878 1.49 2.31 1.49 4.297 0 2.69-.863 4.334-2.59 4.933l3 10.602h-2.84l-2.75-9.926h-2.27v9.926h-2.93V22.777Zm4 9.08a3.844 3.844 0 0 0 2.7-.768 3.614 3.614 0 0 0 .82-2.733 5.95 5.95 0 0 0-.29-2.018 1.89 1.89 0 0 0-1-1.09 4.723 4.723 0 0 0-2.05-.352h-1.29v7l1.11-.04ZM178.679 42.367a9.393 9.393 0 0 1-1.27-5.397v-7.06a13.71 13.71 0 0 1 .5-4.036 4.515 4.515 0 0 1 1.74-2.43 5.87 5.87 0 0 1 3.36-.848 5.216 5.216 0 0 1 2.253.28c.722.258 1.38.672 1.927 1.213a7.108 7.108 0 0 1 1.28 4.67v.787h-2.75v-.656a11.691 11.691 0 0 0-.18-2.34 2.02 2.02 0 0 0-.76-1.24 2.98 2.98 0 0 0-1.72-.414 2.504 2.504 0 0 0-1.81.565 2.587 2.587 0 0 0-.77 1.493c-.127.83-.184 1.67-.17 2.511v7.859a7.63 7.63 0 0 0 .59 3.49 2.832 2.832 0 0 0 2.257 1.058 2.808 2.808 0 0 0 1.238-.316c.384-.199.717-.484.975-.833a8.253 8.253 0 0 0 .61-3.682v-1.493h-2.66V33.46h5.3v10.47h-1.81l-.29-2.43a3.723 3.723 0 0 1-1.4 2.002 3.665 3.665 0 0 1-2.33.691 4.627 4.627 0 0 1-2.288-.38 4.668 4.668 0 0 1-1.822-1.446ZM194.699 36.466l-4.53-13.689h2.72l3.21 10.209 3.16-10.209h2.75l-4.5 13.689v7.465h-2.8l-.01-7.465Z" fill="#444"/>
</g><defs><clipPath id="a"><path fill="#fff" d="M0 0h202v60H0z"/></clipPath></defs></svg>>

<svg fill="none" id="logo_mobile" xmlns="http://www.w3.org/2000/svg">
<line y1="1.25" x2="24" y2="1.25" stroke="black" stroke-width="1.5"/>
<line y1="9.25" x2="24" y2="9.25" stroke="black" stroke-width="1.5"/>
<line y1="17.25" x2="24" y2="17.25" stroke="black" stroke-width="1.5"/>
</svg>

<svg id="logo_mobile-close" fill="none" xmlns="http://www.w3.org/2000/svg">
<line y1="-0.75" x2="24.7577" y2="-0.75" transform="matrix(0.686589 -0.727046 0.686589 0.727046 2.00171 20)" stroke="black" stroke-width="1.5"/>
<line y1="-0.75" x2="24.7577" y2="-0.75" transform="matrix(0.686589 0.727046 -0.686589 0.727046 1 2)" stroke="black" stroke-width="1.5"/>
</svg>

<svg fill="none" id="cat_back" xmlns="http://www.w3.org/2000/svg">
<circle cx="100" cy="113" r="100" fill="#68B738"/>
<g clip-path="url(#clip0_2403_755)">
<path d="M139.68 0H138.92C137.636 0.725875 136.614 1.83883 136 3.18C134.875 5.34423 134.009 7.63331 133.42 10C133.294 10.7116 132.934 11.3611 132.398 11.8462C131.863 12.3313 131.181 12.6246 130.46 12.68C128.256 13.06 126.167 13.9386 124.355 15.2489C122.542 16.5591 121.052 18.2663 120 20.24C118.553 22.8026 117.316 25.478 116.3 28.24C113.46 35.6 111.28 43.2 108.6 50.62C107.34 54 107.28 54 103.48 54C98.94 54 99.26 53.3 99.2 58.3C99.2 59.88 99.68 60.68 101.36 60.6C101.88 60.6 102.66 60.34 102.86 61.02C103.06 61.7 102.38 62 101.98 62.4C99.6086 64.8073 96.6075 66.4984 93.32 67.28C89.52 68.3 85.64 69.1 81.94 70.34C72.44 73.52 63.66 77.96 56.82 85.48C52.8206 90.1507 49.6177 95.4483 47.34 101.16C40 118.44 36.44 136.64 33.68 155.02C32.38 163.64 31.46 172.3 30.76 181.02C30.4 185.3 30 189.64 30 194H96.66C96.7707 193.12 96.6102 192.227 96.2 191.44C95.5589 189.844 94.5171 188.441 93.1753 187.365C91.8335 186.29 90.237 185.578 88.54 185.3C87.14 184.98 86.98 184.56 87.84 183.46C89.2427 181.588 90.318 179.492 91.02 177.26C94.28 167.64 95.54 157.6 97.12 147.66C98.0125 140.068 100.348 132.716 104 126C106.849 121.057 110.649 116.727 115.18 113.26C116.84 112 116.9 112 117.18 114.14C117.38 115.56 117.42 117.02 117.52 118.46C118.12 127.909 118 137.39 117.16 146.82C116.405 154.13 116.304 161.492 116.86 168.82C117.655 177.327 119.174 185.751 121.4 194H148C147.653 191.835 146.656 189.826 145.142 188.241C143.627 186.655 141.667 185.567 139.52 185.12C137.013 184.722 134.45 184.858 132 185.52C130.8 185.8 130.3 185.52 130.2 184.22C129.373 173.632 130.046 162.98 132.2 152.58C134.868 140.574 136.91 128.438 138.32 116.22C138.845 111.286 140.398 106.517 142.88 102.22C145.26 97.98 147.34 93.58 149.68 89.32C150.609 87.771 151.168 86.0286 151.314 84.2282C151.46 82.4279 151.188 80.6182 150.52 78.94C149.98 77.52 149.46 76.08 148.8 74.72C146.8 70.82 144.8 66.96 142.96 63.02C141.98 61.02 142.2 60.78 144.38 60.72C147.64 60.72 147.64 60.72 147.7 57.44C147.7 57 147.7 56.56 147.7 56.12C147.7 54.74 147.18 53.98 145.7 54.12C144.7 54.12 143.7 54.12 142.66 54.12C141.28 54.12 140.88 53.54 141.22 52.12C141.895 49.8116 143.222 47.7473 145.042 46.1755C146.862 44.6037 149.098 43.5912 151.48 43.26C155.911 42.8758 160.376 43.1657 164.72 44.12C165.221 44.2779 165.765 44.2322 166.232 43.9927C166.7 43.7531 167.055 43.3391 167.22 42.84C168.02 40.84 168.9 38.84 169.8 36.84C170.004 36.4852 170.094 36.0763 170.058 35.6686C170.023 35.2608 169.863 34.8739 169.6 34.56C163.2 26.44 156.26 18.86 146.8 14C146.343 13.8033 145.942 13.4952 145.635 13.1039C145.328 12.7127 145.123 12.2506 145.04 11.76C144.505 8.90102 143.653 6.11051 142.5 3.44C141.959 2.01723 140.969 0.809563 139.68 0V0Z" fill="black"/>
</g>
<defs>
<clipPath id="clip0_2403_755">
<rect width="140" height="194" fill="white" transform="translate(30)"/>
</clipPath>
</defs>
</svg>

<svg fill="none" id="panter_back" xmlns="http://www.w3.org/2000/svg">
<circle cx="134" cy="100" r="100" fill="#68B738"/>
<g clip-path="url(#clip0_2403_774)">
<path d="M246.2 55.5999C248.509 51.9261 251.578 48.7891 255.2 46.3999C257.2 44.9999 258.4 44.9999 259.6 47.5999C261.2 51.3999 262.6 55.3999 261.4 59.5999C261.182 60.3122 261.14 61.0671 261.28 61.799C261.419 62.5309 261.735 63.2177 262.2 63.7999C263.4 65.3999 264.4 66.9999 265.4 68.3999C266.761 70.1274 267.644 72.1825 267.96 74.359C268.276 76.5354 268.014 78.7567 267.2 80.7999C266.466 82.7835 266.327 84.9384 266.8 86.9999C267.2 88.9799 267.2 91.0199 266.8 92.9999C266.638 94.4827 266.038 95.8837 265.076 97.0237C264.115 98.1637 262.835 98.991 261.4 99.3999C258.842 99.8867 256.559 101.314 255 103.4C254.811 103.707 254.546 103.961 254.231 104.136C253.916 104.311 253.561 104.402 253.2 104.4C250.8 104.8 244.8 99.3999 244.8 96.9999V95.7999C245 88.5999 244.6 87.9999 238 84.9999C236.619 84.5127 235.381 83.6877 234.4 82.5999C233.2 80.9999 231.6 81.1999 229.8 81.7999C228 82.3999 227 83.5999 227.2 85.5999C227.803 90.4416 228.004 95.325 227.8 100.2C227.813 100.756 227.95 101.303 228.2 101.8C234.4 110.8 236.8 121.4 239.8 131.6C242.2 139.4 246.6 143.6 254.6 144.2C255.88 144.302 257.151 144.503 258.4 144.8C260.044 145.064 261.57 145.815 262.783 146.956C263.995 148.097 264.837 149.575 265.2 151.2C266.6 155.4 265.8 156.4 261.6 156.4H248.6C246.917 156.485 245.267 155.911 244 154.8C241.976 153.092 239.677 151.739 237.2 150.8C234.462 149.789 232.093 147.977 230.4 145.6C228.057 142.327 225.376 139.31 222.4 136.6C216.8 130.8 210.8 125.2 205.6 119.2C201.641 115.112 199.358 109.688 199.2 104C199.2 102.2 198.8 101.4 196.8 102.2C196.201 102.58 195.509 102.787 194.8 102.8C189.2 102.8 186.4 106.2 184.4 111.2C182.6 115.4 180.2 119.4 178 123.6C176.753 126.229 176.071 129.091 176 132C176 136.8 177.2 138.4 181.6 140C184.4 141 187 142 188.4 144.8C190 148 189.6 148.8 186.2 149H172.6C171.816 149.078 171.027 148.907 170.346 148.512C169.664 148.117 169.123 147.518 168.8 146.8L165.2 140.8C164.139 139.234 163.459 137.442 163.216 135.566C162.973 133.691 163.173 131.784 163.8 130C164.666 126.527 164.734 122.903 164 119.4C163.496 116.96 163.539 114.439 164.127 112.018C164.715 109.597 165.833 107.337 167.4 105.4C168.6 104 168.6 103.4 166.6 103C158.422 101.263 150.493 98.5079 143 94.7999C142.947 94.7999 142.896 94.7788 142.859 94.7413C142.821 94.7038 142.8 94.6529 142.8 94.5999C136.4 92.1999 135.2 92.5999 133.4 99.1999C131.8 104.8 130.2 110.4 129 116.2C127.6 122.6 129.2 128.6 131.2 134.6C132 137 134.4 136.8 136.2 137.4C140.2 138.6 143.6 140.2 145.2 144.4C146.6 147.6 146.4 148 143 148C139.6 148 136.2 147.8 132.6 148C129.562 148.055 126.597 147.067 124.2 145.2C114.6 138.8 111.8 129 111 118.4C110.6 111.8 107 106.6 102.8 101.6C102 100.6 101.2 100.2 100 101C95.707 103.367 91.2249 105.374 86.6 107C76.9485 110.408 68.4793 116.517 62.2 124.6C59.8553 127.55 58.3368 131.07 57.8 134.8C57.2 138.4 58.2 140 61.8 141C65.4 142 67.2 144 67.6 147.8C67.8 149.4 67.2 150.2 65.6 150.2H49.4C48.8698 150.162 48.3566 149.997 47.9039 149.719C47.4512 149.44 47.0725 149.056 46.8 148.6C44.2877 145.489 42.9433 141.598 43 137.6C42.8951 130.69 43.4982 123.787 44.8 117C45.067 114.967 45.8259 113.03 47.0108 111.358C48.1958 109.685 49.7711 108.326 51.6 107.4C63.4 101.8 69.6 91.1999 75.2 80.1999C76.4 77.9999 75.4 77.5999 73.4 77.7999C67.8027 78.5769 62.4994 80.7809 58 84.1999C52.1084 88.4976 46.5585 93.2451 41.4 98.3999C35.8993 103.987 28.6054 107.457 20.8 108.2C6.20002 109 -0.599978 100.8 2.18973e-05 87.5999C0.134147 83.0991 1.83132 78.7854 4.80002 75.3999C5.83206 74.0619 7.23949 73.0619 8.84256 72.5275C10.4456 71.9931 12.1716 71.9487 13.8 72.3999C16.8 73.1999 17.6 74.7999 16.4 77.7999C15.8 78.9999 15 79.9999 14.4 81.1999C13.5372 82.4258 12.8631 83.7741 12.4 85.1999C10.2 91.1999 13.2 95.3999 19.4 95.9999C26 96.5999 31.4 93.7999 36.4 89.7999C42.4239 84.9764 47.8014 79.3972 52.4 73.1999C55.8385 68.6747 60.1682 64.9025 65.1217 62.1161C70.0751 59.3298 75.5472 57.5886 81.2 56.9999C85.8 56.3999 89.8 54.3999 94.2 53.1999C102.429 50.6911 110.998 49.4766 119.6 49.5999C123.584 49.7658 127.553 49.0131 131.2 47.3999C141 43.3999 151.2 43.3999 161.4 45.3999C169.4 46.9999 177.4 48.9999 185.2 50.9999C189.842 51.8648 194.615 51.7285 199.2 50.5999C207.977 48.375 216.956 47.0349 226 46.5999C231.925 46.3116 237.83 47.479 243.2 49.9999C247.2 51.7999 247.2 51.7999 246.2 55.5999Z" fill="black"/>
</g>
<defs>
<clipPath id="clip0_2403_774">
<rect width="268" height="112" fill="white" transform="translate(0 44)"/>
</clipPath>
</defs>
</svg>

<svg fill="none" id="arrow" xmlns="http://www.w3.org/2000/svg">
<path stroke="#000" stroke-width="2" d="M0 6h26"/>
<path d="m32 6-6.75 5.196V.804L32 6Z" fill="#000"/></svg>

<svg fill="none" id="leaf" xmlns="http://www.w3.org/2000/svg">
<rect width="80" height="80" fill="#68B738"/>
<g clip-path="url(#clip0_2403_794)">
<path d="M51.8437 27.767C51.7434 27.317 51.3647 27 50.9325 27C50.9306 27 50.9287 27 50.9269 27C45.9891 27.033 33.9816 27.916 29.1337 35.38C26.6156 39.258 26.3991 44.293 28.4897 50.345C28.5056 50.392 28.5384 50.424 28.56 50.467C27.8128 52.44 27.5231 53.753 27.5156 53.79C27.4069 54.33 27.7303 54.862 28.2366 54.978C28.3022 54.993 28.3678 55 28.4334 55C28.8656 55 29.2547 54.679 29.3494 54.21C29.3691 54.108 31.7578 43.837 40.2028 37.832C40.6341 37.526 40.7503 36.905 40.4625 36.445C40.1747 35.985 39.5934 35.86 39.1622 36.168C34.3734 39.573 31.4241 44.176 29.6897 47.824C28.4484 43.246 28.7737 39.447 30.6759 36.519C34.4194 30.755 43.2984 29.365 48.6581 29.071C47.505 30.872 46.245 34.174 46.245 40C46.245 43.12 45.4153 45.522 43.7803 47.14C41.1591 49.731 36.9009 49.974 33.7866 49.724C33.2691 49.679 32.82 50.095 32.7806 50.646C32.7412 51.196 33.1284 51.676 33.6441 51.718C34.2675 51.769 34.9331 51.8 35.625 51.8C38.7956 51.8 42.4941 51.137 45.0544 48.606C47.0887 46.595 48.12 43.7 48.12 40.001C48.12 30.902 51.3356 28.905 51.3516 28.896C51.7416 28.687 51.9459 28.219 51.8437 27.767Z" fill="white"/>
</g>
<defs>
<clipPath id="clip0_2403_794">
<rect width="30" height="32" fill="white" transform="translate(24 25)"/>
</clipPath>
</defs>
</svg>

<svg fill="none" id="powder" xmlns="http://www.w3.org/2000/svg">
<path fill="#68B738" d="M0 0h80v80H0z"/><g clip-path="url(#a)" fill="#fff">
<path d="M45.776 42.473c-1.706 0-3.088 1.479-3.088 3.301 0 1.824 1.383 3.302 3.088 3.302 1.706 0 3.088-1.478 3.088-3.302 0-1.823-1.383-3.3-3.088-3.3Zm0 5.013c-.884 0-1.6-.766-1.6-1.71 0-.947.716-1.713 1.6-1.713.884 0 1.601.766 1.601 1.712 0 .945-.717 1.711-1.6 1.711ZM36.607 23.99c-1.76 0-3.188 1.525-3.188 3.407 0 1.882 1.427 3.407 3.188 3.407 1.76 0 3.187-1.524 3.187-3.407s-1.427-3.407-3.187-3.407Zm0 5.476c-1.07 0-1.936-.926-1.936-2.07 0-1.142.866-2.069 1.935-2.069 1.07 0 1.936.927 1.936 2.07 0 1.143-.866 2.069-1.936 2.069ZM33.227 41.61c-1.294 0-2.341 1.12-2.341 2.503s1.047 2.503 2.34 2.503c1.295 0 2.342-1.12 2.342-2.503 0-1.382-1.047-2.502-2.341-2.502ZM33 43.5c-.459 0 1.158 1.104 1.158.613 0-.49-1.617.387-1.158.387.459 0 1.057-.877 1.057-.388 0 .49-.598-.612-1.057-.612ZM43.5 33.763s3.04-.839 6.178 1.494c.907.76 1.766 1.336 1.152 2.122-.343.34-.637.657-1.716-.524-1.053-.76-2.72-1.898-5.614-1.442-1.128.237-1.961.551-3.556 2.15-1.593 1.598-3.972 2.725-6.497 2.489-2.525-.236-3.849-1.258-5.246-2.542-.294-.42-.294-.865-.123-1.127.171-.262.833-.525 1.201-.132.368.394 2.109 1.966 3.825 2.07 1.716.105 3.433.21 5.737-1.965 2.306-2.174 3.458-2.331 4.66-2.593Z"/><mask id="b">
<path d="M53.646 50.816V32.157c0-.578-.374-.65-.524-.655h-.506c-.493 0-.536.557-.538.739V32.3c.002 3.609.01 18.253-.002 18.54a2.681 2.681 0 0 1-.82 1.887c-.809.695-1.618.603-1.618.603s-20.177 0-20.655-.026c-.38-.066-1.042-.21-1.606-1.01-.564-.798-.453-1.847-.453-1.847V32.315c0-.839-.675-.812-.675-.812h-.307c-.536 0-.585.588-.588.776v18.537c0 1.337.454 2.398 1.548 3.337 1.094.939 2.375.856 2.375.856s19.723 0 20.581-.002c.859-.003 1.986-.417 2.916-1.555.93-1.14.872-2.636.872-2.636Z"/></mask>
<path d="M53.646 50.816V32.157c0-.578-.374-.65-.524-.655h-.506c-.493 0-.536.557-.538.739V32.3c.002 3.609.01 18.253-.002 18.54a2.681 2.681 0 0 1-.82 1.887c-.809.695-1.618.603-1.618.603s-20.177 0-20.655-.026c-.38-.066-1.042-.21-1.606-1.01-.564-.798-.453-1.847-.453-1.847V32.315c0-.839-.675-.812-.675-.812h-.307c-.536 0-.585.588-.588.776v18.537c0 1.337.454 2.398 1.548 3.337 1.094.939 2.375.856 2.375.856s19.723 0 20.581-.002c.859-.003 1.986-.417 2.916-1.555.93-1.14.872-2.636.872-2.636Z"/>
<path d="M53.646 50.816h-20v.387l.015.387 19.985-.774Zm-.524-19.314.71-19.987-.355-.013h-.355v20Zm-1.044.739-20-.15v.15h20Zm0 .06h-20v.008l20-.008Zm-.002 18.54-19.985-.758v.013l19.986.745Zm-.82 1.887 13.039 15.165.431-.37.41-.396-13.88-14.399Zm-1.618.603 2.26-19.872-1.127-.128h-1.133v20Zm-20.655-.026-3.395 19.71 1.133.195 1.149.064 1.113-19.97Zm-1.606-1.01L11.033 63.824l.004.006 16.34-11.533Zm-.453-1.847 19.89 2.098.11-1.046v-1.052h-20Zm-.675-18.945v20h.388l.387-.016-.775-19.984Zm-.895.776L5.356 31.99l-.002.145v.144h20Zm1.548 21.874L13.876 69.33l13.026-15.177Zm2.375.856v-20h-.643l-.64.041 1.283 19.96Zm23.497-1.557 15.49 12.653.005-.008-15.495-12.645Zm20.872-2.636V32.157h-40v18.659h40Zm0-18.659c0-4.97-1.859-11.419-7.618-16.084-4.89-3.96-10.03-4.481-12.196-4.558l-1.42 39.974a19.461 19.461 0 0 1-11.56-4.332c-5.535-4.483-7.206-10.608-7.206-15h40ZM53.122 11.502h-.506v40h.506v-40Zm-.506 0a20.47 20.47 0 0 0-12.283 4.083 20.527 20.527 0 0 0-6.419 8.034 21.136 21.136 0 0 0-1.835 8.473l39.999.298c-.006.733-.014 3.914-1.667 7.598a19.474 19.474 0 0 1-6.096 7.61 19.53 19.53 0 0 1-11.699 3.904v-40ZM32.078 32.241V32.292h40V32.24h-40Zm0 .05V32.302h40V32.291h-40Zm0 .018.004 10.512a8664.752 8664.752 0 0 1-.002 7.251c-.002.788-.006.45.01.011L72.063 51.6c.02-.51.017-1.37.018-1.45l.002-1.807v-5.529c0-4.15-.003-8.719-.004-10.52l-40 .016Zm.012 17.787c.05-1.35.384-7.042 5.285-11.766l27.761 28.797c6.396-6.165 6.852-13.536 6.927-15.54L32.09 50.096Zm6.126-12.532a17.512 17.512 0 0 1 7.807-3.844 17.955 17.955 0 0 1 4.628-.362 19.312 19.312 0 0 1 1.097.085l.075.008.037.004.019.002c.01.001.019.002-2.241 19.874-2.26 19.872-2.25 19.873-2.241 19.874l.018.002a42.98 42.98 0 0 0 .269.029 20.68 20.68 0 0 0 2.597.093 22.044 22.044 0 0 0 3.983-.468 22.487 22.487 0 0 0 10.03-4.968l-26.078-30.33ZM49.638 53.33v-20h-3.156a17381.944 17381.944 0 0 1-14.032-.01l-2.357-.007c-1.071-.005-.613-.013.002.022L27.87 73.274c.97.054 7.17.051 11.606.054l6.997.003h3.164v-20ZM32.377 33.595c.432.074 2.526.427 4.938 1.653a17.618 17.618 0 0 1 6.401 5.514L11.037 63.83c4.995 7.076 11.877 8.725 14.551 9.186l6.789-39.42Zm11.343 7.174c2.35 3.33 2.91 6.508 3.08 7.954a16.586 16.586 0 0 1 .05 3.439 21.707 21.707 0 0 1-.027.29l-.005.047-.002.024a.58.58 0 0 0-.002.011c0 .006 0 .012-19.89-2.086s-19.89-2.092-19.891-2.086l-.002.012a19.039 19.039 0 0 0-.07.851 23.437 23.437 0 0 0 .117 4.197c.256 2.17 1.042 6.272 3.955 10.401L43.72 40.77Zm3.203 9.68V32.314h-40v18.133h40Zm0-18.134c0-6.89-3.411-14.004-10.264-17.999a20.69 20.69 0 0 0-11.136-2.8h-.025c-.012.001-.024.002.751 19.987.776 19.984.763 19.985.751 19.986h-.024l-.05.002a28.228 28.228 0 0 1-.3.008 19.363 19.363 0 0 1-17.35-10.06 19.028 19.028 0 0 1-2.352-9.124h40ZM26.25 11.503h-.307v40h.307v-40Zm-.307 0c-4.038 0-8.32 1.191-12.061 3.905a20.562 20.562 0 0 0-6.553 7.946 21.167 21.167 0 0 0-1.972 8.637l39.996.577c-.011.758-.045 3.996-1.784 7.718a19.438 19.438 0 0 1-6.2 7.5 19.477 19.477 0 0 1-11.426 3.717v-40ZM5.354 32.279v18.537h40V32.279h-40Zm0 18.537c0 7.063 2.92 13.705 8.522 18.514l26.052-30.354c1.294 1.111 2.854 2.871 3.993 5.373a15.715 15.715 0 0 1 1.433 6.467h-40Zm8.523 18.514a23.586 23.586 0 0 0 10.48 5.17 23.615 23.615 0 0 0 5.087.51 21.336 21.336 0 0 0 .991-.034l.063-.004.03-.002h.016c.008-.001.016-.002-1.267-19.96C27.994 35.05 28 35.05 28.009 35.05a1.105 1.105 0 0 1 .046-.003l.061-.004a16.34 16.34 0 0 1 .372-.018 18.5 18.5 0 0 1 1.583.008c.737.037 1.607.13 2.571.334 1.88.398 4.642 1.34 7.285 3.609L13.877 69.33Zm15.4-14.32v20H32.373l6.875-.001c5.007 0 10.202 0 10.668-.002l-.113-40H48.72l-2.443.001-7.032.001H29.277v20Zm20.638 19.997c7.104-.02 13.8-3.336 18.348-8.903L37.285 40.8c2.688-3.29 7.13-5.777 12.517-5.792l.113 40Zm18.354-8.91c3.245-3.977 4.434-8.095 4.913-10.529a24.742 24.742 0 0 0 .464-4.58 22.37 22.37 0 0 0-.013-.895l-.001-.026v-.013c-.001-.006-.001-.013-19.986.762-19.985.774-19.986.767-19.986.761v-.013l-.001-.025a8.846 8.846 0 0 1-.005-.152 19.435 19.435 0 0 1-.007-.611 15.251 15.251 0 0 1 .288-2.931c.275-1.4 1.028-4.201 3.344-7.039l30.99 25.291Z" mask="url(#b)"/></g><defs><clipPath id="a">
<path fill="#fff" transform="translate(25 24)" d="M0 0h29v31H0z"/></clipPath></defs></svg>

<svg id="food" fill="none" xmlns="http://www.w3.org/2000/svg">
<rect width="80" height="80" fill="#68B738"/>
<path fill-rule="evenodd" clip-rule="evenodd" d="M46.6173 25.0761C46.991 24.9214 47.4211 25.0069 47.7071 25.2929C48.6156 26.2014 49.8038 28.1706 50.7659 31.2108C51.7373 34.2804 52.5 38.5081 52.5 44C52.5 44.5523 52.0523 45 51.5 45H48V54C48 54.5523 47.5523 55 47 55C46.4477 55 46 54.5523 46 54V26C46 25.5956 46.2436 25.2309 46.6173 25.0761ZM48 43H50.4912C50.4053 38.1836 49.7051 34.4875 48.8591 31.8142C48.5807 30.9346 48.2885 30.1715 48 29.519V43Z" fill="white"/>
<path fill-rule="evenodd" clip-rule="evenodd" d="M34 25C34.5523 25 35 25.4477 35 26V54C35 54.5523 34.5523 55 34 55C33.4477 55 33 54.5523 33 54V26C33 25.4477 33.4477 25 34 25Z" fill="white"/>
<path fill-rule="evenodd" clip-rule="evenodd" d="M29.5 25C30.0523 25 30.5 25.4477 30.5 26V31.5C30.5 32.0569 30.692 32.8152 31.2009 33.4166C31.68 33.9828 32.5145 34.5 33.9999 34.5C34.5522 34.5 34.9999 34.9477 34.9999 35.5C34.9999 36.0523 34.5522 36.5 33.9999 36.5C31.9855 36.5 30.57 35.7672 29.6741 34.7084C28.808 33.6848 28.5 32.4431 28.5 31.5V26C28.5 25.4477 28.9477 25 29.5 25Z" fill="white"/>
<path fill-rule="evenodd" clip-rule="evenodd" d="M38.5 25C37.9477 25 37.5 25.4477 37.5 26V31.5C37.5 32.0569 37.308 32.8152 36.7991 33.4166C36.32 33.9828 35.4854 34.5 33.9999 34.5C33.4476 34.5 33.0001 34.9477 33.0001 35.5C33.0001 36.0523 33.4476 36.5 33.9999 36.5C36.0144 36.5 37.43 35.7672 38.3259 34.7084C39.192 33.6848 39.5 32.4431 39.5 31.5V26C39.5 25.4477 39.0523 25 38.5 25Z" fill="white"/>
</svg>

<svg width="80" height="80" fill="none" id="clock" xmlns="http://www.w3.org/2000/svg">
<rect width="80" height="80" fill="#68B738"/>
<ellipse cx="45.2042" cy="34.3297" rx="1.0873" ry="1.08512" fill="white"/>
<ellipse cx="34.3311" cy="34.3297" rx="1.08731" ry="1.08512" fill="white"/>
<ellipse cx="34.3311" cy="47.3512" rx="1.08731" ry="1.08512" fill="white"/>
<ellipse cx="39.7677" cy="49.5214" rx="1.0873" ry="1.08512" fill="white"/>
<ellipse cx="31.0692" cy="40.7748" rx="1.08731" ry="1.08512" fill="white"/>
<ellipse cx="48.4661" cy="40.7748" rx="1.0873" ry="1.08512" fill="white"/>
<ellipse cx="45.2042" cy="47.3512" rx="1.0873" ry="1.08512" fill="white"/>
<mask id="path-9-inside-1_2403_812" fill="white">
<path fill-rule="evenodd" clip-rule="evenodd" d="M44.9215 52.0581C45.3298 51.8622 45.8226 51.9298 46.1385 52.2542L47.9644 54.1292C48.2319 54.4039 48.6734 54.4039 48.941 54.1292C49.1987 53.8645 49.1987 53.4427 48.941 53.1781L47.5843 51.7849C47.1584 51.3475 47.2228 50.6356 47.682 50.2333C50.3238 47.9195 52 44.4688 52 40.6145C52 33.6477 46.5235 28 39.7678 28C33.0122 28 27.5356 33.6477 27.5356 40.6145C27.5356 44.4288 29.1773 47.8477 31.7717 50.1608C32.2244 50.5644 32.2849 51.2708 31.8617 51.7054L30.4276 53.1781C30.1698 53.4427 30.1698 53.8645 30.4276 54.1291C30.6951 54.4039 31.1366 54.4039 31.4042 54.1292L33.2838 52.199C33.6025 51.8718 34.1004 51.8061 34.5102 52.0076C36.103 52.7907 37.8858 53.229 39.7678 53.229C41.609 53.229 43.3553 52.8095 44.9215 52.0581ZM39.7678 51.8274C45.7728 51.8274 50.6409 46.8072 50.6409 40.6145C50.6409 34.4218 45.7728 29.4016 39.7678 29.4016C33.7628 29.4016 28.8948 34.4218 28.8948 40.6145C28.8948 46.8072 33.7628 51.8274 39.7678 51.8274ZM39.0083 40.298V36.5001V32.9409C39.0083 32.5094 39.3581 32.1596 39.7895 32.1596C40.221 32.1596 40.5708 32.5094 40.5708 32.9409V36.5001V40.298V40.8406V41.1226C40.5708 41.5661 40.2113 41.9257 39.7677 41.9257C39.3483 41.9257 39.0083 41.5857 39.0083 41.1663V40.8406V40.298Z"/>
</mask>
<path fill-rule="evenodd" clip-rule="evenodd" d="M44.9215 52.0581C45.3298 51.8622 45.8226 51.9298 46.1385 52.2542L47.9644 54.1292C48.2319 54.4039 48.6734 54.4039 48.941 54.1292C49.1987 53.8645 49.1987 53.4427 48.941 53.1781L47.5843 51.7849C47.1584 51.3475 47.2228 50.6356 47.682 50.2333C50.3238 47.9195 52 44.4688 52 40.6145C52 33.6477 46.5235 28 39.7678 28C33.0122 28 27.5356 33.6477 27.5356 40.6145C27.5356 44.4288 29.1773 47.8477 31.7717 50.1608C32.2244 50.5644 32.2849 51.2708 31.8617 51.7054L30.4276 53.1781C30.1698 53.4427 30.1698 53.8645 30.4276 54.1291C30.6951 54.4039 31.1366 54.4039 31.4042 54.1292L33.2838 52.199C33.6025 51.8718 34.1004 51.8061 34.5102 52.0076C36.103 52.7907 37.8858 53.229 39.7678 53.229C41.609 53.229 43.3553 52.8095 44.9215 52.0581ZM39.7678 51.8274C45.7728 51.8274 50.6409 46.8072 50.6409 40.6145C50.6409 34.4218 45.7728 29.4016 39.7678 29.4016C33.7628 29.4016 28.8948 34.4218 28.8948 40.6145C28.8948 46.8072 33.7628 51.8274 39.7678 51.8274ZM39.0083 40.298V36.5001V32.9409C39.0083 32.5094 39.3581 32.1596 39.7895 32.1596C40.221 32.1596 40.5708 32.5094 40.5708 32.9409V36.5001V40.298V40.8406V41.1226C40.5708 41.5661 40.2113 41.9257 39.7677 41.9257C39.3483 41.9257 39.0083 41.5857 39.0083 41.1663V40.8406V40.298Z" fill="white"/>
<path d="M33.2838 52.199L36.1495 54.9896L33.2838 52.199ZM34.5102 52.0076L36.275 48.418L34.5102 52.0076ZM31.4042 54.1292L28.5385 51.3385L31.4042 54.1292ZM30.4276 53.1781L33.2932 55.9687L30.4276 53.1781ZM47.5843 51.7849L44.7186 54.5756L47.5843 51.7849ZM47.682 50.2333L45.0465 47.2243L47.682 50.2333ZM31.7717 50.1608L29.1097 53.1464L31.7717 50.1608ZM31.8617 51.7054L28.9961 48.9147L31.8617 51.7054ZM48.941 53.1781L51.8067 50.3874L48.941 53.1781ZM47.9644 54.1292L50.8301 51.3385L47.9644 54.1292ZM46.1385 52.2542L43.2728 55.0449L46.1385 52.2542ZM44.9215 52.0581L43.1913 48.4516L44.9215 52.0581ZM43.2728 55.0449L45.0987 56.9198L50.8301 51.3385L49.0042 49.4636L43.2728 55.0449ZM51.8067 50.3874L50.45 48.9942L44.7186 54.5756L46.0753 55.9688L51.8067 50.3874ZM50.3175 53.2423C53.8075 50.1855 56 45.6466 56 40.6145H48C48 43.2911 46.8401 45.6534 45.0465 47.2243L50.3175 53.2423ZM56 40.6145C56 31.5555 48.8478 24 39.7678 24V32C44.1992 32 48 35.7399 48 40.6145H56ZM39.7678 24C30.6879 24 23.5356 31.5555 23.5356 40.6145H31.5356C31.5356 35.7399 35.3365 32 39.7678 32V24ZM23.5356 40.6145C23.5356 45.5943 25.683 50.0912 29.1097 53.1464L34.4336 47.1752C32.6716 45.6042 31.5356 43.2633 31.5356 40.6145H23.5356ZM28.9961 48.9147L27.5619 50.3874L33.2932 55.9687L34.7274 54.496L28.9961 48.9147ZM34.2699 56.9198L36.1495 54.9896L30.4181 49.4083L28.5385 51.3385L34.2699 56.9198ZM32.7454 55.5972C34.8722 56.6429 37.2573 57.229 39.7678 57.229V49.229C38.5143 49.229 37.3337 48.9385 36.275 48.418L32.7454 55.5972ZM39.7678 57.229C42.2236 57.229 44.5598 56.6681 46.6517 55.6645L43.1913 48.4516C42.1508 48.9508 40.9944 49.229 39.7678 49.229V57.229ZM39.7678 55.8274C48.0971 55.8274 54.6409 48.8994 54.6409 40.6145H46.6409C46.6409 44.715 43.4485 47.8274 39.7678 47.8274V55.8274ZM54.6409 40.6145C54.6409 32.3296 48.0971 25.4016 39.7678 25.4016V33.4016C43.4485 33.4016 46.6409 36.514 46.6409 40.6145H54.6409ZM39.7678 25.4016C31.4385 25.4016 24.8948 32.3296 24.8948 40.6145H32.8948C32.8948 36.514 36.0871 33.4016 39.7678 33.4016V25.4016ZM24.8948 40.6145C24.8948 48.8994 31.4385 55.8274 39.7678 55.8274V47.8274C36.0871 47.8274 32.8948 44.715 32.8948 40.6145H24.8948ZM36.5708 40.298V40.8406H44.5708V40.298H36.5708ZM36.5708 40.8406V41.1226H44.5708V40.8406H36.5708ZM43.0083 41.1663V40.8406H35.0083V41.1663H43.0083ZM43.0083 40.8406V40.298H35.0083V40.8406H43.0083ZM43.0083 40.298V36.5001H35.0083V40.298H43.0083ZM43.0083 36.5001V32.9409H35.0083V36.5001H43.0083ZM36.5708 32.9409V36.5001H44.5708V32.9409H36.5708ZM36.5708 36.5001V40.298H44.5708V36.5001H36.5708ZM39.7895 28.1596C37.1489 28.1596 35.0083 30.3003 35.0083 32.9409H43.0083C43.0083 34.7186 41.5672 36.1596 39.7895 36.1596V28.1596ZM36.5708 41.1226C36.5708 39.357 38.0021 37.9257 39.7677 37.9257V45.9257C42.4204 45.9257 44.5708 43.7753 44.5708 41.1226H36.5708ZM36.1495 54.9896C35.1569 56.009 33.7521 56.0922 32.7454 55.5972L36.275 48.418C34.4487 47.52 32.048 47.7346 30.4181 49.4083L36.1495 54.9896ZM27.5619 56.9198C29.3997 58.807 32.4321 58.807 34.2699 56.9198L28.5385 51.3385C29.8412 50.0008 31.9906 50.0008 33.2933 51.3385L27.5619 56.9198ZM27.5619 50.3874C25.7917 52.2051 25.7917 55.1021 27.5619 56.9198L33.2933 51.3385C34.548 52.6269 34.5479 54.6803 33.2932 55.9687L27.5619 50.3874ZM50.45 48.9942C51.7927 50.3731 51.394 52.2994 50.3175 53.2423L45.0465 47.2243C43.0515 48.9717 42.524 52.3219 44.7186 54.5756L50.45 48.9942ZM39.7895 36.1596C38.0119 36.1596 36.5708 34.7186 36.5708 32.9409H44.5708C44.5708 30.3003 42.4302 28.1596 39.7895 28.1596V36.1596ZM29.1097 53.1464C28.0463 52.1983 27.6626 50.2839 28.9961 48.9147L34.7274 54.496C36.9071 52.2577 36.4025 48.9306 34.4336 47.1752L29.1097 53.1464ZM51.8067 56.9198C53.5768 55.1021 53.5768 52.2051 51.8067 50.3874L46.0753 55.9688C44.8206 54.6803 44.8206 52.6269 46.0753 51.3385L51.8067 56.9198ZM45.0987 56.9198C46.9365 58.807 49.9689 58.807 51.8067 56.9198L46.0753 51.3385C47.378 50.0008 49.5274 50.0008 50.8301 51.3385L45.0987 56.9198ZM39.7677 37.9257C41.5574 37.9257 43.0083 39.3765 43.0083 41.1663H35.0083C35.0083 43.7948 37.1391 45.9257 39.7677 45.9257V37.9257ZM49.0042 49.4636C47.3881 47.804 45.0117 47.5783 43.1913 48.4516L46.6517 55.6645C45.648 56.1461 44.257 56.0555 43.2728 55.0449L49.0042 49.4636Z" fill="white" mask="url(#path-9-inside-1_2403_812)"/>
<rect x="39" y="29" width="4" height="1.5" transform="rotate(-90 39 29)" fill="white"/>
<rect x="32" y="25" width="15.5" height="1.5" rx="0.75" fill="white"/>
</svg>

<svg fill="none" id="slider-button" xmlns="http://www.w3.org/2000/svg">
<rect x="1" y="1" width="38" height="38" rx="19" fill="white"/>
<path d="M16 11L8 20L16 29V11Z" fill="#666666"/>
<path d="M32 20L24 11V29L32 20Z" fill="#666666"/>
<rect x="1" y="1" width="38" height="38" rx="19" stroke="#666666" stroke-width="2"/>
</svg>

<svg fill="none" id="slider-button-hover" xmlns="http://www.w3.org/2000/svg">
<rect x="1" y="1" width="38" height="38" rx="19" fill="white"/>
<path d="M16 11L8 20L16 29V11Z" fill="#68B738"/>
<path d="M32 20L24 11V29L32 20Z" fill="#68B738"/>
<rect x="1" y="1" width="38" height="38" rx="19" stroke="#68B738" stroke-width="2"/>
</svg>

<svg fill="none" id="logo-title" xmlns="http://www.w3.org/2000/svg">
<g clip-path="url(#clip0_135_3260)">
<path d="M1.60253 22.0513C0.468358 20.3682 -0.0946573 18.3503 3.016e-05 16.3077V7.79487C-0.137317 5.73031 0.390444 3.67661 1.50238 1.94872C2.6041 0.615385 4.30676 0 6.81067 0C9.31458 0 10.9171 0.615385 11.9187 1.74359C13.006 3.17255 13.5409 4.96181 13.421 6.76923V8.82051H8.51333V6.46154C8.55297 5.76385 8.45065 5.06533 8.21286 4.41026C8.08576 4.14583 7.88431 3.9264 7.63443 3.78018C7.38455 3.63395 7.09766 3.56763 6.81067 3.58974C6.10958 3.58974 5.60879 3.79487 5.40848 4.30769C5.18191 5.03643 5.08025 5.79984 5.10801 6.5641V17.5385C5.05512 18.2799 5.19327 19.0227 5.50864 19.6923C5.70895 20.2051 6.20973 20.4103 6.91083 20.4103C7.61192 20.4103 8.01255 20.2051 8.21286 19.6923C8.44058 18.9992 8.54242 18.2692 8.51333 17.5385V15.0769H13.421V17.1282C13.5229 18.9651 12.9911 20.7803 11.9187 22.2564C10.9171 23.4872 9.21443 24.1026 6.81067 24.1026C4.40692 24 2.6041 23.3846 1.60253 22.0513Z" fill="#111111"/>
<path d="M19.3302 0.307617H25.0391L29.2457 23.6922H24.6385L23.8372 18.7692H20.5321L19.7308 23.6922H15.0235L19.3302 0.307617ZM23.4366 15.6922L22.2347 6.56403L21.0329 15.6922H23.4366Z" fill="#111111"/>
<path d="M32.7512 4.20505H29.3459V0.307617H41.2645V4.10249H37.8592V23.6922H32.7512V4.20505Z" fill="#111111"/>
<path d="M50.3787 0.307617H59.1925V2.76916H53.4836V10.4615H58.0908V12.8204H53.4836V21.4358H59.1925V23.7948H50.2786V0.307617H50.3787Z" fill="#111111"/>
<path d="M61.7966 0.307617H64L70.5102 15.7948V0.307617H73.1142V23.6922H71.1111L64.5008 7.69223V23.6922H61.7966V0.307617Z" fill="#111111"/>
<path d="M76.1189 0.307617H84.9327V2.76916H79.2238V10.4615H83.831V12.8204H79.2238V21.4358H84.9327V23.7948H76.1189V0.307617Z" fill="#111111"/>
<path d="M87.5368 0.3076H92.144C93.9564 0.179397 95.7575 0.685711 97.2519 1.7435C98.3537 2.66657 98.8544 4.3076 98.8544 6.46145C98.8544 9.4358 97.953 11.282 96.0501 11.8973L99.2551 23.5897H96.1502L93.1455 12.6153H90.6416V23.5897H87.4366V0.3076H87.5368ZM91.9437 10.3589C92.9762 10.446 94.0053 10.1553 94.8482 9.53837C95.4491 9.02555 95.7496 7.99991 95.7496 6.46145C95.7774 5.69719 95.6757 4.93378 95.4491 4.20504C95.2237 3.68211 94.8366 3.24964 94.3474 2.97427C93.6576 2.65236 92.9003 2.51137 92.144 2.56401H90.7418V10.2563H91.9437V10.3589Z" fill="#111111"/>
<path d="M102.861 21.9487C101.82 20.1554 101.331 18.0821 101.459 15.9999V8.20507C101.434 6.71875 101.602 5.23567 101.959 3.79481C102.294 2.71811 102.962 1.78218 103.862 1.12815C104.981 0.450275 106.271 0.128917 107.568 0.20507C109.671 0.20507 111.174 0.71789 112.075 1.8461C113.112 3.33582 113.608 5.14977 113.477 6.9743V7.79481H110.473V7.07687C110.477 6.21789 110.41 5.36008 110.272 4.51276C110.188 3.97732 109.9 3.49792 109.471 3.17943C108.908 2.80104 108.24 2.62099 107.568 2.66661C106.85 2.61949 106.139 2.83785 105.565 3.28199C105.329 3.48529 105.137 3.73569 104.999 4.01787C104.861 4.30004 104.781 4.60805 104.764 4.92302C104.632 5.83993 104.565 6.76543 104.563 7.69225V16.4102C104.49 17.7384 104.694 19.0674 105.164 20.3076C105.565 21.1281 106.366 21.4358 107.568 21.4358C108.043 21.4964 108.524 21.4119 108.952 21.1929C109.38 20.9739 109.734 20.6302 109.972 20.2051C110.501 18.9081 110.741 17.5064 110.673 16.1025V14.4615H107.768V12.1025H113.577V23.6923H111.574L111.274 21.0256C111.011 21.9193 110.465 22.6975 109.72 23.2364C108.976 23.7753 108.078 24.0441 107.167 23.9999C106.34 24.0498 105.513 23.8885 104.761 23.5304C104.01 23.1724 103.357 22.6289 102.861 21.9487Z" fill="#111111"/>
<path d="M119.987 15.4871L115.08 0.410156H118.084L121.59 11.6922L124.995 0.410156H128L123.092 15.4871V23.6922H120.088V15.4871H119.987Z" fill="#111111"/>
</g>
<defs>
<clipPath id="clip0_135_3260">
<rect width="128" height="24" fill="white"/>
</clipPath>
</defs>
</svg>

<svg fill="none" id="vk" xmlns="http://www.w3.org/2000/svg">
<path d="M0 2.33876C0 1.48373 0.515103 1.02268 1.54531 0.955621L5.51515 0.980769C5.78158 0.980769 5.95921 1.10651 6.04802 1.35799C6.45655 2.61538 6.91392 3.70094 7.42014 4.61465C7.92637 5.52835 8.58801 6.58038 9.40507 7.77071C9.47611 7.9216 9.59157 7.99704 9.75143 7.99704C9.87576 7.99704 9.97345 7.93836 10.0445 7.82101L10.1244 7.54438L10.1511 3.19379C10.1511 2.89201 10.0756 2.69083 9.92461 2.59024C9.77363 2.48965 9.49388 2.4142 9.08535 2.36391C8.76563 2.31361 8.60577 2.12919 8.60577 1.81065C8.60577 1.74359 8.61465 1.69329 8.63241 1.65976C9.00542 0.57002 10.0711 0.0251479 11.8296 0.0251479L13.3216 0C13.9966 0 14.5561 0.15927 15.0001 0.477811C15.4442 0.796351 15.6662 1.29931 15.6662 1.98669V7.69527C15.7906 7.77909 15.906 7.82101 16.0126 7.82101C16.279 7.82101 16.5099 7.67012 16.7053 7.36834C18.6592 4.78649 19.716 3.05966 19.8759 2.18787C19.8759 2.1711 19.8936 2.12919 19.9291 2.06213C20.0535 1.81065 20.2577 1.5927 20.5419 1.40828C20.8261 1.22387 21.0748 1.09813 21.288 1.03107C21.359 0.997535 21.4389 0.980769 21.5277 0.980769H25.6574L25.9239 1.00592C26.2791 1.00592 26.5544 1.16519 26.7498 1.48373C26.8209 1.58432 26.8697 1.69329 26.8964 1.81065C26.923 1.92801 26.9408 2.04536 26.9496 2.16272C26.9585 2.28008 26.963 2.34714 26.963 2.36391V2.53994C26.8386 3.22732 26.5233 3.9608 26.0171 4.74038C25.5109 5.51997 24.867 6.36243 24.0855 7.26775C23.304 8.17308 22.8155 8.76825 22.6201 9.05326C22.4603 9.25444 22.3803 9.43886 22.3803 9.60651C22.3803 9.74063 22.4514 9.89152 22.5935 10.0592L26.4834 14.6864C26.6965 14.9546 26.8031 15.248 26.8031 15.5666C26.8031 15.9522 26.6432 16.2707 26.3235 16.5222C26.0038 16.7737 25.6219 16.9162 25.1779 16.9497L24.7249 16.9749H20.6752C20.6574 16.9749 20.6219 16.979 20.5686 16.9874C20.5153 16.9958 20.4798 17 20.462 17C20.0712 17 19.7071 16.8407 19.3696 16.5222C19.2453 16.3881 18.4105 15.3989 16.8652 13.5547C16.7764 13.4374 16.652 13.3284 16.4922 13.2278C16.4211 13.4961 16.3279 13.8817 16.2124 14.3846C16.097 14.8876 16.0126 15.248 15.9593 15.466L15.8794 15.8935C15.7018 16.4803 15.3287 16.8323 14.7604 16.9497L14.3874 16.9749H11.7763C10.3021 16.9749 8.83224 16.3378 7.36686 15.0636C5.90148 13.7894 4.58264 12.1423 3.41034 10.122C2.23803 8.10182 1.14566 5.75049 0.133216 3.06805C0.0444054 2.8501 0 2.607 0 2.33876ZM16.0126 8.85207C15.6396 8.85207 15.3021 8.75567 15.0001 8.56287C14.6982 8.37007 14.5472 8.10602 14.5472 7.77071V1.98669C14.5472 1.65138 14.4584 1.41248 14.2808 1.26997C14.1032 1.12747 13.7923 1.05621 13.3483 1.05621L11.8296 1.10651C11.0658 1.10651 10.4886 1.23225 10.0978 1.48373C10.8793 1.8358 11.2701 2.40582 11.2701 3.19379V7.61982C11.2346 8.03895 11.0569 8.38683 10.7372 8.66346C10.4175 8.94009 10.0623 9.0784 9.6715 9.0784C9.13863 9.0784 8.7301 8.83531 8.44591 8.34911C7.06046 6.37081 6.03025 4.4931 5.35529 2.71598L5.1155 2.06213L1.57195 2.03698C1.34104 2.03698 1.21227 2.04956 1.18562 2.0747C1.15898 2.09985 1.14566 2.1711 1.14566 2.28846C1.14566 2.43935 1.16342 2.59862 1.19895 2.76627L1.75845 4.17456C3.25048 7.81262 4.87127 10.6795 6.62085 12.7751C8.37042 14.8708 10.0889 15.9186 11.7763 15.9186H14.4406C14.5472 15.9186 14.6271 15.8893 14.6804 15.8306C14.7337 15.7719 14.7781 15.6588 14.8136 15.4911L14.8669 15.2396L15.3732 13.0266C15.5152 12.7249 15.6396 12.5237 15.7462 12.4231C15.9415 12.2387 16.1725 12.1465 16.4389 12.1465C16.8652 12.1465 17.3003 12.3895 17.7444 12.8757L20.0091 15.5917C20.1512 15.8097 20.3022 15.9186 20.462 15.9186H24.8581C25.391 15.9186 25.6574 15.7929 25.6574 15.5414C25.6574 15.4576 25.6308 15.3738 25.5775 15.2899L21.7142 10.7382C21.4123 10.3861 21.2613 10.0089 21.2613 9.60651C21.2613 9.20414 21.4034 8.81854 21.6876 8.4497C21.9185 8.1144 22.367 7.55695 23.0331 6.77737C23.6992 5.99778 24.2809 5.26849 24.7782 4.5895C25.2756 3.9105 25.6042 3.29438 25.764 2.74112L25.8439 2.4142C25.8262 2.38067 25.8173 2.32618 25.8173 2.25074C25.8173 2.1753 25.8084 2.11243 25.7907 2.06213H21.6077C21.3412 2.16272 21.1281 2.31361 20.9682 2.51479L20.8084 2.9926C20.3643 4.14941 19.2009 5.93491 17.3181 8.34911C16.9451 8.68442 16.5099 8.85207 16.0126 8.85207Z" fill="#666666"/>
</svg>

<svg viewBox="0 0 28 22" fill="none" id="youtube" xmlns="http://www.w3.org/2000/svg">
<path d="M17.8509 10.7927L12.6145 7.30184C12.5159 7.23691 12.4016 7.19985 12.2837 7.19459C12.1657 7.18934 12.0486 7.21608 11.9446 7.27198C11.8406 7.32789 11.7537 7.41087 11.693 7.51215C11.6324 7.61343 11.6002 7.72924 11.6 7.84729V14.8291C11.6001 14.9481 11.6327 15.0648 11.6942 15.1667C11.7557 15.2686 11.8438 15.3518 11.9491 15.4073C12.0524 15.4631 12.1691 15.4895 12.2864 15.4837C12.4037 15.478 12.5172 15.4402 12.6145 15.3746L17.8509 11.8837C17.9409 11.8239 18.0148 11.7429 18.0658 11.6477C18.1169 11.5526 18.1436 11.4462 18.1436 11.3382C18.1436 11.2302 18.1169 11.1239 18.0658 11.0287C18.0148 10.9335 17.9409 10.8525 17.8509 10.7927ZM12.9091 13.6073V9.06911L16.3127 11.3382L12.9091 13.6073ZM25.3891 5.04366C25.2942 4.67547 25.1131 4.33511 24.8609 4.05061C24.6086 3.76611 24.2924 3.54561 23.9382 3.40729C20.2182 1.9782 14.2509 2.00002 14 2.00002C13.7491 2.00002 7.78182 1.9782 4.06182 3.40729C3.70764 3.54561 3.3914 3.76611 3.13914 4.05061C2.88689 4.33511 2.70584 4.67547 2.61091 5.04366C2.32727 6.11275 2 8.07638 2 11.3382C2 14.6 2.32727 16.5637 2.61091 17.6327C2.70584 18.0009 2.88689 18.3413 3.13914 18.6258C3.3914 18.9103 3.70764 19.1308 4.06182 19.2691C7.78182 20.6982 13.7491 20.6764 14 20.6764H14.0764C14.8291 20.6764 20.3927 20.6327 23.9382 19.2691C24.2924 19.1308 24.6086 18.9103 24.8609 18.6258C25.1131 18.3413 25.2942 18.0009 25.3891 17.6327C25.6727 16.5637 26 14.6 26 11.3382C26 8.07638 25.6727 6.11275 25.3891 5.04366ZM24.1236 17.3055C24.0807 17.472 23.999 17.6259 23.8853 17.7548C23.7715 17.8838 23.6289 17.984 23.4691 18.0473C19.9782 19.3891 14.0655 19.3673 14 19.3673C13.9345 19.3673 8.02182 19.3891 4.53091 18.0473C4.37107 17.984 4.22846 17.8838 4.11471 17.7548C4.00096 17.6259 3.91929 17.472 3.87636 17.3055C3.61455 16.3018 3.30909 14.4582 3.30909 11.3382C3.30909 8.2182 3.61455 6.37457 3.87636 5.37093C3.91929 5.20445 4.00096 5.05047 4.11471 4.92156C4.22846 4.79264 4.37107 4.69243 4.53091 4.62911C8.02182 3.28729 13.9345 3.30911 14 3.30911C14.0655 3.30911 19.9782 3.28729 23.4691 4.62911C23.6289 4.69243 23.7715 4.79264 23.8853 4.92156C23.999 5.05047 24.0807 5.20445 24.1236 5.37093C24.3855 6.37457 24.6909 8.2182 24.6909 11.3382C24.6909 14.4582 24.3855 16.3018 24.1236 17.3055Z" fill="#666666"/>
</svg>

<svg fill="none" id="telegramm" xmlns="http://www.w3.org/2000/svg">
<path fill-rule="evenodd" clip-rule="evenodd" d="M19.4608 0.152905C19.6393 0.302216 19.7255 0.534898 19.6872 0.764481L17.0611 16.5214C17.0244 16.7411 16.8789 16.9273 16.6745 17.0159C16.47 17.1045 16.2346 17.0833 16.0493 16.9597L8.17082 11.7074C8.01771 11.6054 7.91447 11.4437 7.88624 11.2619C7.858 11.08 7.90738 10.8947 8.02233 10.751L10.633 7.48773L6.27303 10.3944C6.077 10.525 5.82597 10.5407 5.61524 10.4353L0.362931 7.80915C0.127693 7.69153 -0.0146529 7.44488 0.00119976 7.18235C0.0170525 6.91983 0.188044 6.6921 0.435726 6.60364L18.8188 0.0382579C19.038 -0.0400244 19.2822 0.00359465 19.4608 0.152905ZM2.32626 7.32275L5.86168 9.09046L13.4231 4.0495C13.6925 3.86994 14.0525 3.91349 14.2712 4.1521C14.49 4.3907 14.5022 4.75314 14.3 5.00591L9.49502 11.0121L15.9328 15.3039L18.2083 1.65058L2.32626 7.32275Z" fill="#666666"/>
</svg>

<svg fill="none" id="htmlacademy" xmlns="http://www.w3.org/2000/svg">
<path d="M13.6426 0.0157537L13.5 0L0 1.40733V26.0129L13.5 34L27 26.0129V1.40733L13.6426 0.0157537ZM25.2344 25.0151L13.5 31.9573L1.76561 25.0151V14.9293L13.4507 21.8451L13.4701 23.0984L5.45351 18.3548L5.44295 19.5801L13.4894 24.3885L13.5088 25.675L5.46408 20.9174L5.45351 22.1427L13.5 26.9511L21.6239 22.1182V20.8929V16.909L25.2432 14.7595L25.2344 25.0151ZM25.2344 13.4519L22.0147 15.3319L20.5325 16.2071L13.4666 12.0201L13.456 13.2454L19.4957 16.818L19.4429 16.8495L19.3126 16.9247L18.4536 17.4166L13.4666 14.4689L13.456 15.6942L17.3921 18.0222L16.4591 18.6314L16.438 18.6436L13.4666 16.902L13.456 18.1273L15.4029 19.2615L13.4155 20.4483L1.7973 13.5762L13.4349 6.61831L25.2344 13.4519ZM25.2344 12.2266L13.4401 5.31075L1.76561 12.2196V2.9897L13.5 1.76442L25.2344 2.9897V12.2266Z" fill="#666666"/>
</svg>

<svg fill="none" id="plus" xmlns="http://www.w3.org/2000/svg">
<line x1="15" x2="15" y2="30" stroke="#D3D3D3" stroke-width="2"/>
<line x1="30" y1="15" y2="15" stroke="#D3D3D3" stroke-width="2"/>
</svg>

<svg fill="none" id="icon_gift" xmlns="http://www.w3.org/2000/svg">
<path d="M64.0156 34.7127H14.031C12.2766 34.7127 10.8494 33.2951 10.8494 31.5524V22.0842C10.8494 20.3415 12.2766 18.9233 14.031 18.9233H64.0149C65.7687 18.9233 67.1953 20.3415 67.1953 22.0842V31.553C67.1959 33.2951 65.7693 34.7127 64.0156 34.7127ZM14.031 21.3455C13.6276 21.3455 13.2869 21.684 13.2869 22.0842V31.553C13.2869 31.9599 13.6208 32.2912 14.031 32.2912H64.0149C64.4244 32.2912 64.7578 31.9599 64.7578 31.553V22.0842C64.7578 21.6834 64.4171 21.3455 64.0149 21.3455H14.031Z" fill="white"/>
<path d="M57.0447 67.1488H20.999C17.6218 67.1488 14.8741 64.4191 14.8741 61.0626V33.5016C14.8741 32.8331 15.4201 32.2905 16.0929 32.2905C16.7656 32.2905 17.3116 32.8331 17.3116 33.5016V61.0626C17.3116 63.0833 18.9661 64.7267 20.999 64.7267H57.0447C59.077 64.7267 60.7308 63.0833 60.7308 61.0626V33.5016C60.7308 32.8331 61.2768 32.2905 61.9496 32.2905C62.6223 32.2905 63.1683 32.8331 63.1683 33.5016V61.0626C63.1683 64.4191 60.4213 67.1488 57.0447 67.1488Z" fill="white"/>
<path d="M39.0225 67.1488C38.3498 67.1488 37.8038 66.6069 37.8038 65.9378V33.5016C37.8038 32.8331 38.3498 32.2905 39.0225 32.2905C39.6953 32.2905 40.2413 32.8331 40.2413 33.5016V65.9372C40.2413 66.6069 39.6959 67.1488 39.0225 67.1488Z" fill="white"/>
<path d="M23.8113 21.3414C19.9966 19.2874 18.5731 14.5327 20.6383 10.7415C22.7022 6.95201 27.4864 5.53687 31.303 7.58721C37.117 10.7166 40.2565 19.4472 40.3869 19.8172L38.0877 20.6208C38.0585 20.5384 35.1256 12.3994 30.1433 9.71749C27.5078 8.30175 24.2062 9.27908 22.7821 11.8944C21.3567 14.5121 22.339 17.7941 24.9734 19.2117L23.8113 21.3414Z" fill="white"/>
<path d="M54.2313 21.3413L53.071 19.2111C54.3477 18.5238 55.2782 17.3848 55.6926 16.0035C56.1063 14.6217 55.9534 13.1624 55.2617 11.895C54.5719 10.6264 53.4263 9.70233 52.0363 9.29117C50.6457 8.88001 49.1783 9.0314 47.9023 9.71747C42.9201 12.3988 39.9871 20.5378 39.9579 20.6202L37.6587 19.8166C37.7891 19.4466 40.928 10.716 46.7421 7.58719C48.5897 6.5929 50.7182 6.3737 52.7316 6.96955C54.7468 7.56479 56.4061 8.90484 57.4061 10.7414C58.4073 12.5774 58.6285 14.6913 58.0289 16.6939C57.4287 18.6958 56.0801 20.3458 54.2313 21.3413Z" fill="white"/>
<path d="M61.9496 50.9314H16.0929C15.4201 50.9314 14.8741 50.3889 14.8741 49.7204C14.8741 49.0518 15.4201 48.5093 16.0929 48.5093H61.9496C62.6223 48.5093 63.1683 49.0518 63.1683 49.7204C63.1683 50.3889 62.6229 50.9314 61.9496 50.9314Z" fill="white"/>
</svg>

<svg fill="none" id="letter" xmlns="http://www.w3.org/2000/svg">
<line x1="0.65" y1="5.84766" x2="0.65" y2="13.8477" stroke="#222222" stroke-width="1.3"/>
<line x1="17.65" y1="5.84766" x2="17.65" y2="13.8477" stroke="#222222" stroke-width="1.3"/>
<line y1="13.1977" x2="18" y2="13.1977" stroke="#222222" stroke-width="1.3"/>
<line y1="1.19766" x2="18" y2="1.19766" stroke="#222222" stroke-width="1.3"/>
<path d="M17.35 3.02975L9.00002 9.5242L0.65 3.02975V1.49766H3.5L9.00002 1.49766H14H17.35V3.02975Z" stroke="#222222" stroke-width="1.3"/>
</svg>

<svg fill="none" id="phone" xmlns="http://www.w3.org/2000/svg">
<g clip-path="url(#clip0_153_253)">
<path d="M17.9 9.75275H9.39999V10.9569H17.9L15.8 13.0641L16.7 13.9672L19.8 10.8565C19.8974 10.7263 19.95 10.5678 19.95 10.405C19.95 10.2421 19.8974 10.0837 19.8 9.95344L16.7 6.84277L15.8 7.74587L17.9 9.75275Z" fill="black"/>
<path d="M8.10001 19.7872V13.5659C8.08846 13.41 8.02154 13.2635 7.91142 13.153C7.80131 13.0425 7.65531 12.9754 7.50001 12.9638H3.10001C3.10516 13.2815 3.23325 13.5848 3.45718 13.8095C3.68112 14.0342 3.98336 14.1627 4.30001 14.1679H6.80001V19.1851H3.10001C2.86326 19.2 2.62591 19.1676 2.40176 19.0896C2.17762 19.0117 1.97115 18.8898 1.79436 18.7311C1.61757 18.5723 1.47399 18.3799 1.37196 18.165C1.26992 17.9501 1.21148 17.717 1.20001 17.4793V3.43111C1.19181 2.96681 1.36516 2.51774 1.68292 2.18013C2.00069 1.84252 2.43758 1.64322 2.90001 1.62492H6.80001V6.64212H4.40001C4.08336 6.64729 3.78112 6.77581 3.55718 7.00052C3.33325 7.22523 3.20516 7.52851 3.20001 7.84625H7.60001C7.75531 7.83466 7.90131 7.76751 8.01142 7.65701C8.12154 7.54651 8.18846 7.40002 8.20001 7.24418V0.922517C8.15232 0.76584 8.06117 0.626022 7.93721 0.519407C7.81325 0.412792 7.66161 0.343785 7.50001 0.320453H3.10001C2.70599 0.307054 2.31321 0.371716 1.94411 0.510744C1.57501 0.649771 1.23684 0.860436 0.948933 1.13069C0.661026 1.40095 0.42903 1.7255 0.266207 2.08579C0.103385 2.44608 0.01293 2.83504 1.46306e-05 3.23043V17.1782C-0.0289644 17.5773 0.0246504 17.978 0.157487 18.3552C0.290324 18.7324 0.499509 19.078 0.771886 19.3701C1.04426 19.6623 1.37394 19.8947 1.74019 20.0529C2.10643 20.211 2.50132 20.2913 2.90001 20.2889H7.50001C7.5735 20.304 7.64943 20.3022 7.72216 20.2839C7.7949 20.2655 7.86259 20.2309 7.92021 20.1828C7.97783 20.1346 8.02391 20.074 8.05504 20.0055C8.08616 19.9371 8.10153 19.8624 8.10001 19.7872Z" fill="black"/>
</g>
<defs>
<clipPath id="clip0_153_253">
<rect width="20" height="20.0688" fill="white" transform="translate(0 0.320435)"/>
</clipPath>
</defs>
</svg>

<svg fill="none" id="vector" xmlns="http://www.w3.org/2000/svg">
<path d="M7 11.718L1.3 5.26951L0.25 6.45739L7 14.0938L18.25 1.36648L17.2 0.09375L7 11.718Z" fill="#68B738"/>
</svg>


</svg>
